<?xml version="1.0" encoding="iso-8859-1"?>
<!-- Generator: Adobe Illustrator 21.0.0, SVG Export Plug-In . SVG Version: 6.00 Build 0)  -->
<svg version="1.1" id="Layer_1" xmlns="http://www.w3.org/2000/svg" xmlns:xlink="http://www.w3.org/1999/xlink" x="0px" y="0px"
	 viewBox="0 0 40 40" style="enable-background:new 0 0 40 40;" xml:space="preserve">
<g>
	<polygon style="fill:#FFFFFF;" points="6.5,37.5 6.5,2.5 24.793,2.5 33.5,11.207 33.5,37.5 	"/>
	<g>
		<path style="fill:#C74343;" d="M24.586,3L33,11.414V37H7V3H24.586 M25,2H6v36h28V11L25,2L25,2z"/>
	</g>
</g>
<g>
	<polygon style="fill:#FFD9D9;" points="24.5,11.5 24.5,2.5 24.793,2.5 33.5,11.207 33.5,11.5 	"/>
	<g>
		<path style="fill:#C74343;" d="M25,3.414L32.586,11H25V3.414 M25,2h-1v10h10v-1L25,2L25,2z"/>
	</g>
</g>
<path style="fill:none;stroke:#C74343;stroke-miterlimit:10;" d="M27.5,25.873c0-2.7-15-0.16-15,3.086
	c0,0.262,0.253,0.541,0.662,0.541c3.141,0,8.96-15,6.112-15s1.611,12.304,6.862,12.304C26.902,26.804,27.5,26.577,27.5,25.873z"/>
</svg>
